<?xml version="1.0" standalone="no"?>
<!DOCTYPE svg PUBLIC "-//W3C//DTD SVG 20010904//EN"
 "http://www.w3.org/TR/2001/REC-SVG-20010904/DTD/svg10.dtd">
<svg version="1.0" xmlns="http://www.w3.org/2000/svg"
 width="988.000000pt" height="988.000000pt" viewBox="0 0 988.000000 988.000000"
 preserveAspectRatio="xMidYMid meet">
<metadata>
Created by potrace 1.11, written by Peter Selinger 2001-2013
</metadata>
<g transform="translate(0.000000,988.000000) scale(0.100000,-0.100000)"
fill="#000000" stroke="none">
<path d="M4678 9875 c-2 -1 -43 -6 -93 -9 -85 -7 -132 -11 -215 -21 -19 -3
-57 -7 -85 -10 -27 -4 -57 -8 -65 -10 -8 -3 -33 -7 -55 -10 -22 -3 -51 -7 -65
-10 -14 -3 -43 -7 -65 -10 -22 -3 -47 -7 -55 -10 -8 -2 -26 -6 -40 -9 -136
-25 -346 -81 -545 -146 -928 -301 -1758 -889 -2373 -1683 -51 -66 -98 -130
-104 -141 -6 -12 -14 -23 -18 -26 -4 -3 -41 -57 -82 -120 -340 -524 -563
-1050 -698 -1643 -16 -73 -32 -152 -35 -176 -3 -23 -7 -46 -9 -50 -2 -3 -7
-26 -10 -51 -3 -25 -8 -56 -10 -70 -5 -26 -15 -100 -21 -160 -3 -19 -7 -53 -9
-75 -27 -213 -27 -817 -1 -990 2 -16 7 -50 10 -75 8 -78 16 -134 20 -160 2
-14 11 -68 20 -120 16 -101 63 -312 89 -405 2 -5 6 -23 10 -40 27 -108 127
-411 161 -490 7 -16 20 -48 28 -70 8 -22 27 -67 42 -100 14 -33 33 -76 42 -95
22 -48 136 -277 160 -320 11 -19 35 -62 53 -95 19 -33 54 -91 79 -130 25 -38
51 -81 58 -93 39 -72 232 -335 347 -472 119 -143 126 -150 296 -320 329 -330
603 -541 1057 -813 64 -39 416 -217 427 -217 4 0 35 -13 70 -29 165 -78 641
-236 796 -265 14 -3 79 -16 145 -30 109 -23 242 -46 335 -60 32 -5 76 -9 195
-21 302 -30 751 -26 1050 10 128 15 212 26 226 31 9 2 54 11 100 19 245 42
581 135 819 225 30 12 67 25 81 30 15 4 42 15 60 23 19 9 68 30 109 47 176 75
480 234 613 322 32 21 60 38 62 38 7 0 131 85 240 163 112 81 262 200 369 291
80 69 390 377 453 451 29 33 62 71 73 85 12 14 34 40 48 59 15 19 45 57 68 85
65 82 172 232 249 351 64 99 87 138 162 270 44 76 181 351 208 415 15 36 35
83 45 105 140 311 292 873 335 1235 3 25 7 63 10 85 22 171 29 314 29 580 0
207 -8 408 -19 495 -37 284 -62 436 -95 575 -10 44 -21 93 -24 110 -16 88
-148 496 -209 645 -5 14 -11 30 -12 35 -8 35 -195 421 -267 550 -156 281 -352
560 -572 815 -107 123 -352 372 -451 457 -33 28 -71 62 -85 74 -49 43 -256
206 -325 255 -135 97 -414 274 -431 274 -3 0 -18 8 -32 19 -50 35 -305 161
-466 230 -139 60 -483 185 -540 197 -10 2 -58 15 -105 28 -77 22 -146 40 -206
52 -11 2 -51 10 -90 19 -71 15 -91 18 -205 36 -36 5 -72 11 -80 14 -8 2 -42 7
-75 10 -33 4 -67 8 -75 10 -8 2 -51 7 -95 10 -44 4 -96 9 -115 12 -37 5 -617
13 -622 8z"/>
</g>
</svg>
